<svg xmlns="http://www.w3.org/2000/svg" xmlns:xlink="http://www.w3.org/1999/xlink" version="1.1" x="0px" y="0px" viewBox="0 0 64 80" style="enable-background:new 0 0 64 64;" xml:space="preserve"><g><path d="M49,11c-2.21,0-4,1.79-4,4s1.79,4,4,4s4-1.79,4-4S51.21,11,49,11z M49,17c-1.1,0-2-0.9-2-2s0.9-2,2-2s2,0.9,2,2   S50.1,17,49,17z"/><path d="M32,43c6.07,0,11-4.93,11-11s-4.93-11-11-11s-11,4.93-11,11S25.93,43,32,43z M32,23c4.96,0,9,4.04,9,9c0,4.96-4.04,9-9,9   s-9-4.04-9-9C23,27.04,27.04,23,32,23z"/><path d="M53,6H11c-2.76,0-5,2.24-5,5v42c0,2.76,2.24,5,5,5h42c2.76,0,5-2.24,5-5V11C58,8.24,55.76,6,53,6z M56,53   c0,1.65-1.35,3-3,3H11c-1.65,0-3-1.35-3-3V33h8.05c0.52,8.36,7.46,15,15.95,15s15.43-6.64,15.95-15H56V53z M18,32   c0-7.72,6.28-14,14-14s14,6.28,14,14s-6.28,14-14,14S18,39.72,18,32z M56,31h-8.05C47.43,22.64,40.48,16,32,16   s-15.43,6.64-15.95,15H8V11c0-1.65,1.35-3,3-3h42c1.65,0,3,1.35,3,3V31z"/></g><text x="0" y="79" fill="#000000" font-size="5px" font-weight="bold" font-family="'Helvetica Neue', Helvetica, Arial-Unicode, Arial, Sans-serif">Created by Aulia Nurfadilah</text><text x="0" y="84" fill="#000000" font-size="5px" font-weight="bold" font-family="'Helvetica Neue', Helvetica, Arial-Unicode, Arial, Sans-serif">from the Noun Project</text></svg>